# xmcd
#
# Track frame offsets:
#	225
#	15578
#	29562
#	42161
#	61186
#	78419
#	91628
#	104921
#	118045
#	133652
#
# Disc length: 1959 seconds
#
# Revision: 0
# Processed by: cddbd v1.5.1PL2 Copyright (c) Steve Scherf et al.
# Submitted via: EasyCDDAExtractor 9.0.0.1
#
DISCID=7e07a40a
DTITLE=Various Artist - For What It's Worth
DYEAR=1996
DGENRE=Country
TTITLE0=He'll Lift Me Up
TTITLE1=At least I'd Have your Love
TTITLE2=Mama's Rocking Chair
TTITLE3=Unseen Hands
TTITLE4=You Complete The Picture
TTITLE5=For what It's Worth
TTITLE6=Unfinished Business
TTITLE7=Sanging In The Rain
TTITLE8=Harder For Wise Men
TTITLE9=A Little Bit Of Love
EXTD=
EXTT0=
EXTT1=
EXTT2=
EXTT3=
EXTT4=
EXTT5=
EXTT6=
EXTT7=
EXTT8=
EXTT9=
PLAYORDER=
